<mxfile host="app.diagrams.net" agent="Mozilla/5.0 (Windows NT 10.0; Win64; x64) AppleWebKit/537.36 (KHTML, like Gecko) Chrome/131.0.0.0 Safari/537.36" version="25.0.3">
  <diagram name="Page-1" id="2YBvvXClWsGukQMizWep">
    <mxGraphModel dx="4780" dy="2460" grid="1" gridSize="10" guides="1" tooltips="1" connect="1" arrows="1" fold="1" page="1" pageScale="1" pageWidth="1169" pageHeight="1654" math="0" shadow="0">
      <root>
        <mxCell id="0" />
        <mxCell id="1" parent="0" />
        <mxCell id="p1_bvQ4lCgfAWQzNd4JW-222" style="edgeStyle=orthogonalEdgeStyle;rounded=0;orthogonalLoop=1;jettySize=auto;html=1;entryX=0.5;entryY=0;entryDx=0;entryDy=0;dashed=1;" edge="1" parent="1" source="p1_bvQ4lCgfAWQzNd4JW-65" target="p1_bvQ4lCgfAWQzNd4JW-182">
          <mxGeometry relative="1" as="geometry" />
        </mxCell>
        <mxCell id="p1_bvQ4lCgfAWQzNd4JW-65" value="&lt;font color=&quot;#000000&quot;&gt;Créer un compte admin&lt;/font&gt;" style="ellipse;whiteSpace=wrap;html=1;fillColor=#99CCFF;strokeColor=#66B2FF;fontColor=#ffffff;fontStyle=2" vertex="1" parent="1">
          <mxGeometry x="420" y="60" width="120" height="80" as="geometry" />
        </mxCell>
        <mxCell id="p1_bvQ4lCgfAWQzNd4JW-223" style="edgeStyle=orthogonalEdgeStyle;rounded=0;orthogonalLoop=1;jettySize=auto;html=1;entryX=0.5;entryY=0;entryDx=0;entryDy=0;dashed=1;" edge="1" parent="1" source="p1_bvQ4lCgfAWQzNd4JW-66" target="p1_bvQ4lCgfAWQzNd4JW-182">
          <mxGeometry relative="1" as="geometry" />
        </mxCell>
        <mxCell id="p1_bvQ4lCgfAWQzNd4JW-66" value="&lt;font color=&quot;#000000&quot;&gt;Statistiques covoiturages&lt;/font&gt;" style="ellipse;whiteSpace=wrap;html=1;fillColor=#99CCFF;strokeColor=#66B2FF;fontColor=#ffffff;fontStyle=2" vertex="1" parent="1">
          <mxGeometry x="420" y="150" width="120" height="80" as="geometry" />
        </mxCell>
        <mxCell id="p1_bvQ4lCgfAWQzNd4JW-224" style="edgeStyle=orthogonalEdgeStyle;rounded=0;orthogonalLoop=1;jettySize=auto;html=1;entryX=0.5;entryY=0;entryDx=0;entryDy=0;dashed=1;" edge="1" parent="1" source="p1_bvQ4lCgfAWQzNd4JW-67" target="p1_bvQ4lCgfAWQzNd4JW-182">
          <mxGeometry relative="1" as="geometry" />
        </mxCell>
        <mxCell id="p1_bvQ4lCgfAWQzNd4JW-67" value="&lt;font color=&quot;#000000&quot;&gt;Suspension compte utilisateur&lt;/font&gt;&lt;div&gt;&lt;font color=&quot;#000000&quot;&gt;ou employé&lt;/font&gt;&lt;/div&gt;" style="ellipse;whiteSpace=wrap;html=1;fillColor=#99CCFF;strokeColor=#66B2FF;fontColor=#ffffff;fontStyle=2;dashed=1;" vertex="1" parent="1">
          <mxGeometry x="420" y="240" width="120" height="80" as="geometry" />
        </mxCell>
        <mxCell id="p1_bvQ4lCgfAWQzNd4JW-225" style="edgeStyle=orthogonalEdgeStyle;rounded=0;orthogonalLoop=1;jettySize=auto;html=1;dashed=1;entryX=0.5;entryY=0;entryDx=0;entryDy=0;" edge="1" parent="1" source="p1_bvQ4lCgfAWQzNd4JW-68" target="p1_bvQ4lCgfAWQzNd4JW-182">
          <mxGeometry relative="1" as="geometry">
            <mxPoint x="1100" y="650" as="targetPoint" />
          </mxGeometry>
        </mxCell>
        <mxCell id="p1_bvQ4lCgfAWQzNd4JW-68" value="Gérer les litiges" style="ellipse;whiteSpace=wrap;html=1;fillColor=#9C4E00;strokeColor=#B09500;fontColor=#000000;fontStyle=2;dashed=1;" vertex="1" parent="1">
          <mxGeometry x="420" y="410" width="120" height="80" as="geometry" />
        </mxCell>
        <mxCell id="p1_bvQ4lCgfAWQzNd4JW-226" style="edgeStyle=orthogonalEdgeStyle;rounded=0;orthogonalLoop=1;jettySize=auto;html=1;entryX=0.5;entryY=0;entryDx=0;entryDy=0;dashed=1;" edge="1" parent="1" source="p1_bvQ4lCgfAWQzNd4JW-69" target="p1_bvQ4lCgfAWQzNd4JW-182">
          <mxGeometry relative="1" as="geometry" />
        </mxCell>
        <mxCell id="p1_bvQ4lCgfAWQzNd4JW-228" value="&lt;font style=&quot;font-size: 20px;&quot;&gt;include&lt;/font&gt;" style="edgeLabel;html=1;align=center;verticalAlign=middle;resizable=0;points=[];" vertex="1" connectable="0" parent="p1_bvQ4lCgfAWQzNd4JW-226">
          <mxGeometry x="0.7558" y="2" relative="1" as="geometry">
            <mxPoint y="-1" as="offset" />
          </mxGeometry>
        </mxCell>
        <mxCell id="p1_bvQ4lCgfAWQzNd4JW-69" value="&lt;div&gt;Visibilité des&lt;/div&gt;&lt;div&gt;covoiturages&lt;/div&gt;" style="ellipse;whiteSpace=wrap;html=1;fillColor=#9C4E00;strokeColor=#B09500;fontColor=#000000;fontStyle=2;dashed=1;" vertex="1" parent="1">
          <mxGeometry x="420" y="500" width="120" height="80" as="geometry" />
        </mxCell>
        <mxCell id="p1_bvQ4lCgfAWQzNd4JW-227" style="edgeStyle=orthogonalEdgeStyle;rounded=0;orthogonalLoop=1;jettySize=auto;html=1;entryX=0.5;entryY=0;entryDx=0;entryDy=0;dashed=1;" edge="1" parent="1" source="p1_bvQ4lCgfAWQzNd4JW-70" target="p1_bvQ4lCgfAWQzNd4JW-182">
          <mxGeometry relative="1" as="geometry" />
        </mxCell>
        <mxCell id="p1_bvQ4lCgfAWQzNd4JW-70" value="&lt;div&gt;Validation ou refus&lt;/div&gt;&lt;div&gt;des avis&lt;/div&gt;" style="ellipse;whiteSpace=wrap;html=1;fillColor=#9C4E00;strokeColor=#B09500;fontColor=#000000;fontStyle=2" vertex="1" parent="1">
          <mxGeometry x="420" y="590" width="120" height="80" as="geometry" />
        </mxCell>
        <mxCell id="p1_bvQ4lCgfAWQzNd4JW-229" style="edgeStyle=orthogonalEdgeStyle;rounded=0;orthogonalLoop=1;jettySize=auto;html=1;entryX=0.5;entryY=1;entryDx=0;entryDy=0;dashed=1;" edge="1" parent="1" source="p1_bvQ4lCgfAWQzNd4JW-72" target="p1_bvQ4lCgfAWQzNd4JW-182">
          <mxGeometry relative="1" as="geometry" />
        </mxCell>
        <mxCell id="p1_bvQ4lCgfAWQzNd4JW-234" style="edgeStyle=orthogonalEdgeStyle;rounded=0;orthogonalLoop=1;jettySize=auto;html=1;dashed=1;" edge="1" parent="1" source="p1_bvQ4lCgfAWQzNd4JW-72" target="p1_bvQ4lCgfAWQzNd4JW-70">
          <mxGeometry relative="1" as="geometry" />
        </mxCell>
        <mxCell id="p1_bvQ4lCgfAWQzNd4JW-235" value="&lt;font style=&quot;font-size: 20px;&quot;&gt;extend&lt;/font&gt;" style="edgeLabel;html=1;align=center;verticalAlign=middle;resizable=0;points=[];" vertex="1" connectable="0" parent="p1_bvQ4lCgfAWQzNd4JW-234">
          <mxGeometry x="-0.2389" y="2" relative="1" as="geometry">
            <mxPoint as="offset" />
          </mxGeometry>
        </mxCell>
        <mxCell id="p1_bvQ4lCgfAWQzNd4JW-72" value="Déposer un avis" style="ellipse;whiteSpace=wrap;html=1;fillColor=#008a00;strokeColor=#005700;fontColor=#ffffff;fontStyle=2" vertex="1" parent="1">
          <mxGeometry x="420" y="770" width="120" height="80" as="geometry" />
        </mxCell>
        <mxCell id="p1_bvQ4lCgfAWQzNd4JW-230" style="edgeStyle=orthogonalEdgeStyle;rounded=0;orthogonalLoop=1;jettySize=auto;html=1;entryX=0.5;entryY=1;entryDx=0;entryDy=0;dashed=1;" edge="1" parent="1" source="p1_bvQ4lCgfAWQzNd4JW-73" target="p1_bvQ4lCgfAWQzNd4JW-182">
          <mxGeometry relative="1" as="geometry" />
        </mxCell>
        <mxCell id="p1_bvQ4lCgfAWQzNd4JW-73" value="Proposer un trajet" style="ellipse;whiteSpace=wrap;html=1;fillColor=#008a00;strokeColor=#005700;fontColor=#ffffff;fontStyle=2" vertex="1" parent="1">
          <mxGeometry x="420" y="860" width="120" height="80" as="geometry" />
        </mxCell>
        <mxCell id="p1_bvQ4lCgfAWQzNd4JW-231" style="edgeStyle=orthogonalEdgeStyle;rounded=0;orthogonalLoop=1;jettySize=auto;html=1;entryX=0.5;entryY=1;entryDx=0;entryDy=0;dashed=1;" edge="1" parent="1" source="p1_bvQ4lCgfAWQzNd4JW-179" target="p1_bvQ4lCgfAWQzNd4JW-182">
          <mxGeometry relative="1" as="geometry" />
        </mxCell>
        <mxCell id="p1_bvQ4lCgfAWQzNd4JW-179" value="Annuler un trajet" style="ellipse;whiteSpace=wrap;html=1;fillColor=#008a00;strokeColor=#005700;fontColor=#ffffff;fontStyle=2" vertex="1" parent="1">
          <mxGeometry x="420" y="950" width="120" height="80" as="geometry" />
        </mxCell>
        <mxCell id="p1_bvQ4lCgfAWQzNd4JW-232" style="edgeStyle=orthogonalEdgeStyle;rounded=0;orthogonalLoop=1;jettySize=auto;html=1;entryX=0.5;entryY=1;entryDx=0;entryDy=0;dashed=1;" edge="1" parent="1" source="p1_bvQ4lCgfAWQzNd4JW-180" target="p1_bvQ4lCgfAWQzNd4JW-182">
          <mxGeometry relative="1" as="geometry" />
        </mxCell>
        <mxCell id="p1_bvQ4lCgfAWQzNd4JW-180" value="&lt;div&gt;Participer à un&lt;/div&gt;&lt;div&gt;covoiturage&lt;/div&gt;" style="ellipse;whiteSpace=wrap;html=1;fillColor=#008a00;strokeColor=#005700;fontColor=#ffffff;fontStyle=2" vertex="1" parent="1">
          <mxGeometry x="420" y="1040" width="120" height="80" as="geometry" />
        </mxCell>
        <mxCell id="p1_bvQ4lCgfAWQzNd4JW-233" style="edgeStyle=orthogonalEdgeStyle;rounded=0;orthogonalLoop=1;jettySize=auto;html=1;entryX=0.5;entryY=1;entryDx=0;entryDy=0;" edge="1" parent="1" source="p1_bvQ4lCgfAWQzNd4JW-181" target="p1_bvQ4lCgfAWQzNd4JW-182">
          <mxGeometry relative="1" as="geometry" />
        </mxCell>
        <mxCell id="p1_bvQ4lCgfAWQzNd4JW-237" value="&lt;font style=&quot;font-size: 20px;&quot;&gt;include&lt;/font&gt;" style="edgeLabel;html=1;align=center;verticalAlign=middle;resizable=0;points=[];" vertex="1" connectable="0" parent="p1_bvQ4lCgfAWQzNd4JW-233">
          <mxGeometry x="0.7159" y="-4" relative="1" as="geometry">
            <mxPoint as="offset" />
          </mxGeometry>
        </mxCell>
        <mxCell id="p1_bvQ4lCgfAWQzNd4JW-181" value="&lt;div&gt;Consulter&lt;/div&gt;&lt;div&gt;l&#39;historique des&lt;/div&gt;&lt;div&gt;trajets&lt;/div&gt;" style="ellipse;whiteSpace=wrap;html=1;fillColor=#008a00;strokeColor=#005700;fontColor=#ffffff;fontStyle=2" vertex="1" parent="1">
          <mxGeometry x="420" y="1130" width="120" height="80" as="geometry" />
        </mxCell>
        <mxCell id="p1_bvQ4lCgfAWQzNd4JW-182" value="&lt;div&gt;&lt;font color=&quot;#000000&quot;&gt;Se connecter&lt;/font&gt;&lt;/div&gt;" style="ellipse;whiteSpace=wrap;html=1;fillColor=#007FFF;strokeColor=#006EAF;fontColor=#ffffff;fontStyle=2" vertex="1" parent="1">
          <mxGeometry x="810" y="670" width="120" height="80" as="geometry" />
        </mxCell>
        <mxCell id="p1_bvQ4lCgfAWQzNd4JW-195" style="edgeStyle=orthogonalEdgeStyle;rounded=0;orthogonalLoop=1;jettySize=auto;html=1;entryX=0;entryY=0.5;entryDx=0;entryDy=0;" edge="1" parent="1" source="p1_bvQ4lCgfAWQzNd4JW-183" target="p1_bvQ4lCgfAWQzNd4JW-66">
          <mxGeometry relative="1" as="geometry" />
        </mxCell>
        <mxCell id="p1_bvQ4lCgfAWQzNd4JW-196" style="edgeStyle=orthogonalEdgeStyle;rounded=0;orthogonalLoop=1;jettySize=auto;html=1;entryX=0;entryY=0.5;entryDx=0;entryDy=0;" edge="1" parent="1" source="p1_bvQ4lCgfAWQzNd4JW-183" target="p1_bvQ4lCgfAWQzNd4JW-65">
          <mxGeometry relative="1" as="geometry" />
        </mxCell>
        <mxCell id="p1_bvQ4lCgfAWQzNd4JW-197" style="edgeStyle=orthogonalEdgeStyle;rounded=0;orthogonalLoop=1;jettySize=auto;html=1;entryX=0;entryY=0.5;entryDx=0;entryDy=0;" edge="1" parent="1" source="p1_bvQ4lCgfAWQzNd4JW-183" target="p1_bvQ4lCgfAWQzNd4JW-67">
          <mxGeometry relative="1" as="geometry" />
        </mxCell>
        <mxCell id="p1_bvQ4lCgfAWQzNd4JW-199" value="" style="edgeStyle=orthogonalEdgeStyle;rounded=0;orthogonalLoop=1;jettySize=auto;html=1;entryX=0.5;entryY=0;entryDx=0;entryDy=0;entryPerimeter=0;" edge="1" parent="1" source="p1_bvQ4lCgfAWQzNd4JW-183" target="p1_bvQ4lCgfAWQzNd4JW-198">
          <mxGeometry relative="1" as="geometry">
            <mxPoint x="285" y="490" as="targetPoint" />
          </mxGeometry>
        </mxCell>
        <mxCell id="p1_bvQ4lCgfAWQzNd4JW-183" value="Administrateur" style="shape=umlActor;verticalLabelPosition=bottom;verticalAlign=top;html=1;outlineConnect=0;" vertex="1" parent="1">
          <mxGeometry x="270" y="160" width="30" height="60" as="geometry" />
        </mxCell>
        <mxCell id="p1_bvQ4lCgfAWQzNd4JW-187" style="edgeStyle=orthogonalEdgeStyle;rounded=0;orthogonalLoop=1;jettySize=auto;html=1;entryX=0;entryY=0.5;entryDx=0;entryDy=0;" edge="1" parent="1" source="p1_bvQ4lCgfAWQzNd4JW-184" target="p1_bvQ4lCgfAWQzNd4JW-72">
          <mxGeometry relative="1" as="geometry" />
        </mxCell>
        <mxCell id="p1_bvQ4lCgfAWQzNd4JW-189" style="edgeStyle=orthogonalEdgeStyle;rounded=0;orthogonalLoop=1;jettySize=auto;html=1;entryX=0;entryY=0.5;entryDx=0;entryDy=0;" edge="1" parent="1" source="p1_bvQ4lCgfAWQzNd4JW-184" target="p1_bvQ4lCgfAWQzNd4JW-179">
          <mxGeometry relative="1" as="geometry" />
        </mxCell>
        <mxCell id="p1_bvQ4lCgfAWQzNd4JW-190" style="edgeStyle=orthogonalEdgeStyle;rounded=0;orthogonalLoop=1;jettySize=auto;html=1;entryX=0;entryY=0.5;entryDx=0;entryDy=0;" edge="1" parent="1" source="p1_bvQ4lCgfAWQzNd4JW-184" target="p1_bvQ4lCgfAWQzNd4JW-180">
          <mxGeometry relative="1" as="geometry" />
        </mxCell>
        <mxCell id="p1_bvQ4lCgfAWQzNd4JW-191" style="edgeStyle=orthogonalEdgeStyle;rounded=0;orthogonalLoop=1;jettySize=auto;html=1;entryX=0;entryY=0.5;entryDx=0;entryDy=0;" edge="1" parent="1" source="p1_bvQ4lCgfAWQzNd4JW-184" target="p1_bvQ4lCgfAWQzNd4JW-181">
          <mxGeometry relative="1" as="geometry" />
        </mxCell>
        <mxCell id="p1_bvQ4lCgfAWQzNd4JW-184" value="Utilisateur" style="shape=umlActor;verticalLabelPosition=bottom;verticalAlign=top;html=1;outlineConnect=0;" vertex="1" parent="1">
          <mxGeometry x="270" y="960" width="30" height="60" as="geometry" />
        </mxCell>
        <mxCell id="p1_bvQ4lCgfAWQzNd4JW-188" style="edgeStyle=orthogonalEdgeStyle;rounded=0;orthogonalLoop=1;jettySize=auto;html=1;entryX=0;entryY=0.375;entryDx=0;entryDy=0;entryPerimeter=0;" edge="1" parent="1" source="p1_bvQ4lCgfAWQzNd4JW-184" target="p1_bvQ4lCgfAWQzNd4JW-73">
          <mxGeometry relative="1" as="geometry" />
        </mxCell>
        <mxCell id="p1_bvQ4lCgfAWQzNd4JW-202" style="edgeStyle=orthogonalEdgeStyle;rounded=0;orthogonalLoop=1;jettySize=auto;html=1;" edge="1" parent="1" source="p1_bvQ4lCgfAWQzNd4JW-198" target="p1_bvQ4lCgfAWQzNd4JW-184">
          <mxGeometry relative="1" as="geometry">
            <mxPoint x="285" y="950" as="targetPoint" />
          </mxGeometry>
        </mxCell>
        <mxCell id="p1_bvQ4lCgfAWQzNd4JW-238" style="edgeStyle=orthogonalEdgeStyle;rounded=0;orthogonalLoop=1;jettySize=auto;html=1;entryX=0;entryY=0.5;entryDx=0;entryDy=0;" edge="1" parent="1" source="p1_bvQ4lCgfAWQzNd4JW-198" target="p1_bvQ4lCgfAWQzNd4JW-68">
          <mxGeometry relative="1" as="geometry" />
        </mxCell>
        <mxCell id="p1_bvQ4lCgfAWQzNd4JW-239" style="edgeStyle=orthogonalEdgeStyle;rounded=0;orthogonalLoop=1;jettySize=auto;html=1;entryX=0;entryY=0.5;entryDx=0;entryDy=0;" edge="1" parent="1" source="p1_bvQ4lCgfAWQzNd4JW-198" target="p1_bvQ4lCgfAWQzNd4JW-69">
          <mxGeometry relative="1" as="geometry" />
        </mxCell>
        <mxCell id="p1_bvQ4lCgfAWQzNd4JW-240" style="edgeStyle=orthogonalEdgeStyle;rounded=0;orthogonalLoop=1;jettySize=auto;html=1;entryX=0;entryY=0.5;entryDx=0;entryDy=0;" edge="1" parent="1" source="p1_bvQ4lCgfAWQzNd4JW-198" target="p1_bvQ4lCgfAWQzNd4JW-70">
          <mxGeometry relative="1" as="geometry" />
        </mxCell>
        <mxCell id="p1_bvQ4lCgfAWQzNd4JW-198" value="Employé" style="shape=umlActor;verticalLabelPosition=bottom;verticalAlign=top;html=1;outlineConnect=0;" vertex="1" parent="1">
          <mxGeometry x="270" y="510" width="30" height="60" as="geometry" />
        </mxCell>
        <mxCell id="p1_bvQ4lCgfAWQzNd4JW-212" style="edgeStyle=orthogonalEdgeStyle;rounded=0;orthogonalLoop=1;jettySize=auto;html=1;entryX=0;entryY=0.5;entryDx=0;entryDy=0;" edge="1" parent="1" source="p1_bvQ4lCgfAWQzNd4JW-204" target="p1_bvQ4lCgfAWQzNd4JW-206">
          <mxGeometry relative="1" as="geometry" />
        </mxCell>
        <mxCell id="p1_bvQ4lCgfAWQzNd4JW-213" style="edgeStyle=orthogonalEdgeStyle;rounded=0;orthogonalLoop=1;jettySize=auto;html=1;entryX=0;entryY=0.5;entryDx=0;entryDy=0;" edge="1" parent="1" source="p1_bvQ4lCgfAWQzNd4JW-204" target="p1_bvQ4lCgfAWQzNd4JW-207">
          <mxGeometry relative="1" as="geometry" />
        </mxCell>
        <mxCell id="p1_bvQ4lCgfAWQzNd4JW-216" style="edgeStyle=orthogonalEdgeStyle;rounded=0;orthogonalLoop=1;jettySize=auto;html=1;entryX=0;entryY=0.5;entryDx=0;entryDy=0;" edge="1" parent="1" source="p1_bvQ4lCgfAWQzNd4JW-204" target="p1_bvQ4lCgfAWQzNd4JW-210">
          <mxGeometry relative="1" as="geometry">
            <Array as="points">
              <mxPoint x="440" y="1430" />
              <mxPoint x="440" y="1430" />
            </Array>
          </mxGeometry>
        </mxCell>
        <mxCell id="p1_bvQ4lCgfAWQzNd4JW-204" value="Visiteur" style="shape=umlActor;verticalLabelPosition=bottom;verticalAlign=top;html=1;outlineConnect=0;" vertex="1" parent="1">
          <mxGeometry x="270" y="1380" width="30" height="60" as="geometry" />
        </mxCell>
        <mxCell id="p1_bvQ4lCgfAWQzNd4JW-205" value="&lt;div&gt;Naviguer sur&lt;/div&gt;&lt;div&gt;l&#39;application&lt;/div&gt;" style="ellipse;whiteSpace=wrap;html=1;fillColor=#FF9999;strokeColor=#005700;fontColor=#000000;fontStyle=2" vertex="1" parent="1">
          <mxGeometry x="420" y="1250" width="120" height="80" as="geometry" />
        </mxCell>
        <mxCell id="p1_bvQ4lCgfAWQzNd4JW-206" value="&lt;div&gt;Chercher un&lt;/div&gt;&lt;div&gt;covoiturage&lt;/div&gt;" style="ellipse;whiteSpace=wrap;html=1;fillColor=#FF9999;strokeColor=#005700;fontColor=#000000;fontStyle=2" vertex="1" parent="1">
          <mxGeometry x="420" y="1340" width="120" height="80" as="geometry" />
        </mxCell>
        <mxCell id="p1_bvQ4lCgfAWQzNd4JW-207" value="&lt;div&gt;Visualiser les&lt;/div&gt;&lt;div&gt;détails de&lt;/div&gt;&lt;div&gt;covoiturage&lt;/div&gt;" style="ellipse;whiteSpace=wrap;html=1;fillColor=#FF9999;strokeColor=#005700;fontColor=#000000;fontStyle=2" vertex="1" parent="1">
          <mxGeometry x="420" y="1440" width="120" height="80" as="geometry" />
        </mxCell>
        <mxCell id="p1_bvQ4lCgfAWQzNd4JW-208" value="&lt;div&gt;Créer un compte /&lt;/div&gt;&lt;div&gt;Se connecter&lt;/div&gt;" style="ellipse;whiteSpace=wrap;html=1;fillColor=#FF9999;strokeColor=#005700;fontColor=#000000;fontStyle=2" vertex="1" parent="1">
          <mxGeometry x="420" y="1530" width="120" height="80" as="geometry" />
        </mxCell>
        <mxCell id="p1_bvQ4lCgfAWQzNd4JW-210" value="&lt;div&gt;Filter les&lt;/div&gt;&lt;div&gt;covoiturages&lt;/div&gt;" style="ellipse;whiteSpace=wrap;html=1;fillColor=#FF9999;strokeColor=#005700;fontColor=#000000;fontStyle=2" vertex="1" parent="1">
          <mxGeometry x="810" y="1390" width="120" height="80" as="geometry" />
        </mxCell>
        <mxCell id="p1_bvQ4lCgfAWQzNd4JW-211" style="edgeStyle=orthogonalEdgeStyle;rounded=0;orthogonalLoop=1;jettySize=auto;html=1;entryX=-0.005;entryY=0.426;entryDx=0;entryDy=0;entryPerimeter=0;" edge="1" parent="1" source="p1_bvQ4lCgfAWQzNd4JW-204" target="p1_bvQ4lCgfAWQzNd4JW-205">
          <mxGeometry relative="1" as="geometry" />
        </mxCell>
        <mxCell id="p1_bvQ4lCgfAWQzNd4JW-214" style="edgeStyle=orthogonalEdgeStyle;rounded=0;orthogonalLoop=1;jettySize=auto;html=1;entryX=0;entryY=0.625;entryDx=0;entryDy=0;entryPerimeter=0;" edge="1" parent="1" source="p1_bvQ4lCgfAWQzNd4JW-204" target="p1_bvQ4lCgfAWQzNd4JW-208">
          <mxGeometry relative="1" as="geometry" />
        </mxCell>
        <mxCell id="p1_bvQ4lCgfAWQzNd4JW-219" value="" style="endArrow=classic;html=1;rounded=0;exitX=1;exitY=0.5;exitDx=0;exitDy=0;dashed=1;dashPattern=8 8;entryX=0.108;entryY=0.247;entryDx=0;entryDy=0;entryPerimeter=0;" edge="1" parent="1" source="p1_bvQ4lCgfAWQzNd4JW-206" target="p1_bvQ4lCgfAWQzNd4JW-210">
          <mxGeometry width="50" height="50" relative="1" as="geometry">
            <mxPoint x="690" y="1430" as="sourcePoint" />
            <mxPoint x="760" y="1380" as="targetPoint" />
            <Array as="points">
              <mxPoint x="720" y="1380" />
              <mxPoint x="720" y="1410" />
            </Array>
          </mxGeometry>
        </mxCell>
        <mxCell id="p1_bvQ4lCgfAWQzNd4JW-220" value="include" style="edgeLabel;html=1;align=center;verticalAlign=middle;resizable=0;points=[];" vertex="1" connectable="0" parent="p1_bvQ4lCgfAWQzNd4JW-219">
          <mxGeometry x="0.3119" y="1" relative="1" as="geometry">
            <mxPoint x="-55" y="-29" as="offset" />
          </mxGeometry>
        </mxCell>
      </root>
    </mxGraphModel>
  </diagram>
</mxfile>
